<?xml version="1.0" encoding="utf-8"?>
<!-- Generator: Adobe Illustrator 22.1.0, SVG Export Plug-In . SVG Version: 6.00 Build 0)  -->
<svg version="1.1" id="レイヤー_1" xmlns="http://www.w3.org/2000/svg" xmlns:xlink="http://www.w3.org/1999/xlink" x="0px"
	 y="0px" viewBox="0 0 40 27" style="enable-background:new 0 0 40 27;" xml:space="preserve">
<style type="text/css">
	.st0{fill:#FFFFFF;}
</style>
<path id="mail" class="st0" d="M36.7,0H3.3C1.5,0,0,1.5,0,3.3v20c0,1.8,1.5,3.3,3.3,3.3h33.3c1.8,0,3.3-1.5,3.3-3.3v-20
	C40,1.5,38.5,0,36.7,0z M12.1,17.4l-5.8,3.3c-0.1,0.1-0.3,0.1-0.4,0.1c-0.3,0-0.6-0.2-0.7-0.4C4.9,20,5,19.5,5.4,19.3l5.8-3.3
	c0.4-0.2,0.9-0.1,1.1,0.3C12.6,16.7,12.5,17.2,12.1,17.4z M20,17.5c-0.2,0-0.3,0-0.5-0.1L5.4,8.2C5,7.9,4.9,7.4,5.1,7
	c0.2-0.4,0.8-0.5,1.2-0.2L20,15.7l13.7-8.9c0.4-0.3,0.9-0.1,1.2,0.2c0.2,0.4,0.1,0.9-0.2,1.2l-14.2,9.2C20.3,17.5,20.2,17.5,20,17.5
	z M34.9,20.4c-0.2,0.3-0.4,0.4-0.7,0.4c-0.1,0-0.3,0-0.4-0.1l-5.8-3.3c-0.4-0.2-0.5-0.7-0.3-1.1c0.2-0.4,0.7-0.5,1.1-0.3l5.8,3.3
	C35,19.5,35.1,20,34.9,20.4z"/>
<g>
</g>
<g>
</g>
<g>
</g>
<g>
</g>
<g>
</g>
<g>
</g>
<g>
</g>
<g>
</g>
<g>
</g>
<g>
</g>
<g>
</g>
<g>
</g>
<g>
</g>
<g>
</g>
<g>
</g>
</svg>
