<?xml version="1.0" encoding="utf-8"?>
<!-- Generator: Adobe Illustrator 22.1.0, SVG Export Plug-In . SVG Version: 6.00 Build 0)  -->
<svg version="1.1" id="レイヤー_1" xmlns="http://www.w3.org/2000/svg" xmlns:xlink="http://www.w3.org/1999/xlink" x="0px"
	 y="0px" viewBox="0 0 480 30" style="enable-background:new 0 0 480 30;" xml:space="preserve">
<style type="text/css">
	.st0{fill:#FFFFFF;}
</style>
<g>
	<path class="st0" d="M19.6,25.3l-7-8.8H8.2v8.8H4V4.8h4.3v8.8h4.4l6.9-8.8h4.9l-8.1,10l8.6,10.4H19.6z"/>
	<path class="st0" d="M55.3,25.3H51V16H39.1v9.3h-4.3V8c0-2.1,1.3-3.2,3.8-3.2h12.9c2.6,0,3.8,1.1,3.8,3.2V25.3z M51,8.3H39.1v5.5
		H51V8.3z"/>
	<path class="st0" d="M72.7,4.8h4.5v20.4h-4.5V4.8z"/>
	<path class="st0" d="M109.6,25.3l-7-8.8h-4.4v8.8H94V4.8h4.3v8.8h4.4l6.9-8.8h4.9l-8.1,10l8.6,10.4H109.6z"/>
	<path class="st0" d="M145.3,25.3H141V16h-11.9v9.3h-4.3V8c0-2.1,1.3-3.2,3.8-3.2h12.9c2.6,0,3.8,1.1,3.8,3.2V25.3z M141,8.3h-11.9
		v5.5H141V8.3z"/>
	<path class="st0" d="M167.8,27.9h-3.3v-15l-4.9,4.5c-0.9,0.8-1.6,1.3-2.2,1.5c-0.5,0.1-1.4,0.2-2.8,0.2h-2v-3.3h2.1
		c0.8,0,1.5-0.1,2-0.4c0.4-0.2,1-0.7,1.8-1.4l10.3-9.5c0.9-0.8,1.6-1.3,2-1.6c0.4-0.2,1.2-0.3,2.2-0.3h4.3V6h-3.5
		c-0.8,0-1.4,0.1-1.8,0.3c-0.3,0.1-0.7,0.4-1.3,1l-2.9,2.6V27.9z"/>
	<path class="st0" d="M204.6,2.5l-9.3,22.7c-0.8,1.8-2,2.8-3.8,2.8h-6.4v-3h4c1.7,0,2.9-0.9,3.7-2.6l8-19.8H204.6z"/>
	<path class="st0" d="M238.5,26h-0.6c-1.6,0-2.9-0.6-3.9-1.8l-11.9-13.9c-0.4-0.5-0.8-0.7-1.1-0.7c-0.4,0-0.8,0.3-1.3,0.8l-6,6.5
		l-2.1-2.5l6.1-6.6c0.7-0.7,1.3-1.2,1.7-1.5c0.4-0.3,0.9-0.4,1.5-0.4c0.7,0,1.3,0.2,1.8,0.5c0.4,0.2,0.8,0.7,1.3,1.3l12.3,13.7
		c0.6,0.7,1.3,1.1,2.2,1.1V26z M231,8l-1.7,1.4l-2.5-3.3l1.7-1.2L231,8z M234.3,6.6l-1.6,1.3l-2.6-3l1.6-1.2L234.3,6.6z"/>
	<path class="st0" d="M266.7,16.6h-23.5v-3.1h23.5V16.6z"/>
	<path class="st0" d="M283.5,16.7h-3.4c-1.1,0-2-0.1-2.5-0.3c-0.8-0.3-1.4-0.9-2-1.8l-3-4.9h4l1.8,2.7c0.3,0.5,0.7,0.9,1.1,1.1
		c0.3,0.1,0.7,0.1,1.3,0.1h2.7V16.7z M297.7,11.1c-1.6,0-2.6,0.6-2.8,1.8l-2.2,9.4c-0.4,2-1.1,3.3-2,4.2c-1.1,0.9-2.6,1.4-4.7,1.4
		h-13.2v-3H284c1.4,0,2.5-0.2,3.3-0.5c1.1-0.5,1.8-1.4,2.1-2.8l2.6-10.3c0.5-2.2,1.7-3.3,3.5-3.3h2.3V11.1z M285,9.2h-2.6
		c-1.1,0-2-0.1-2.5-0.4c-0.7-0.3-1.4-0.9-1.9-1.8l-2.8-4.7h4l1.5,2.5c0.3,0.5,0.7,0.9,1.1,1.1c0.3,0.1,0.8,0.1,1.4,0.1h1.8V9.2z"/>
	<path class="st0" d="M321.4,18.6h-16.1v-2.8h16.1v-5.8h-16V7.3h19.2v18c0,0.8-0.2,1.5-0.7,2c-0.4,0.5-1.1,0.7-1.9,0.7h-16.5v-2.8
		H320c0.9,0,1.4-0.5,1.4-1.4V18.6z"/>
	<path class="st0" d="M344.3,11.3h-2.8c-1.1,0-2-0.1-2.5-0.4c-0.7-0.3-1.3-0.9-1.9-1.8l-4.5-6.6h4.2l3,4.4c0.5,0.8,1.4,1.2,2.6,1.2
		h2V11.3z M357.9,9.2c-0.8,0-1.4,0.1-1.8,0.3c-0.5,0.3-0.9,0.8-1,1.5l-2.5,11.3c-0.4,2-1.1,3.3-2.1,4.2c-1,0.9-2.6,1.4-4.7,1.4
		h-13.2v-3h11.3c1.4,0,2.5-0.2,3.2-0.5c1.1-0.5,1.7-1.4,2.1-2.8l2.9-12.2c0.5-2.2,1.7-3.3,3.5-3.3h2.3V9.2z"/>
	<path class="st0" d="M387.3,12.7l-5.1,12.8c-0.4,0.9-1,1.6-1.7,1.9c-0.6,0.3-1.6,0.5-2.8,0.5h-12.6v-3h10.9c1.8,0,2.9-0.5,3.3-1.6
		l4.2-10.7h-21v-3h24.7V12.7z M386,5.7h-21.7V2.6H386V5.7z"/>
	<path class="st0" d="M399.6,12.1l-2.3,12.2c-0.3,1.5-0.7,2.5-1.2,3s-1.4,0.7-2.8,0.7h-1.5v-3.1c0.7,0,1.2-0.2,1.6-0.4
		c0.4-0.4,0.7-1,0.9-1.9l1.9-10.4H399.6z M406.7,27.9h-3.4V9.5h-11.4v-3h11.4V2h3.4v4.5H418v3h-11.4V27.9z M418.1,27.9h-1.8
		c-1.4,0-2.3-0.2-2.8-0.7c-0.5-0.5-0.9-1.5-1.2-3l-2.2-12.1h3.3l1.9,10.3c0.2,1,0.5,1.7,0.9,2c0.4,0.3,1,0.4,1.9,0.4V27.9z
		 M414.9,4.6l-1.9,1l-1.8-3.7l1.9-0.8L414.9,4.6z M418.5,3.9l-1.9,0.9l-1.9-3.5l1.8-0.9L418.5,3.9z"/>
	<path class="st0" d="M447.1,27.8h-21.1c-0.9,0-1.7-0.3-2.2-0.8c-0.6-0.5-0.8-1.3-0.8-2.2v-12c0-0.9,0.3-1.7,0.8-2.2
		c0.5-0.5,1.3-0.8,2.2-0.8h7.4V2.3h3.6v7.5h9.7v3h-18.4c-1.3,0-1.9,0.6-1.9,1.9v8.3c0,1.3,0.6,1.9,1.9,1.9h18.9V27.8z"/>
	<path class="st0" d="M457.4,27.9h-2.5c-0.9,0-1.6-0.2-2.1-0.5c-0.4-0.4-0.6-1-0.6-1.8V2.1h3.3V23c0,1.3,0.6,1.9,1.9,1.9V27.9z
		 M477.8,20.2h-4v4.4c0,1-0.3,1.7-0.8,2.4c-0.5,0.6-1.1,0.9-1.9,0.9h-8.6c-0.6,0-1-0.2-1.4-0.6c-0.4-0.4-0.6-0.9-0.6-1.4v-6.6
		c0-0.5,0.2-1,0.6-1.4c0.4-0.4,0.9-0.6,1.4-0.6h7.9V9.1h-11.7V6h11.7V2.2h3.4V6h4v3h-4v8.2h4V20.2z M470.3,20.2h-5.8
		c-0.3,0-0.6,0.1-0.9,0.3c-0.2,0.2-0.4,0.5-0.4,0.8v2.5c0,0.3,0.1,0.6,0.4,0.8c0.3,0.2,0.6,0.3,0.9,0.3h4.5c0.3,0,0.6-0.1,0.8-0.3
		c0.3-0.3,0.4-0.5,0.4-0.8V20.2z"/>
</g>
<g>
</g>
<g>
</g>
<g>
</g>
<g>
</g>
<g>
</g>
<g>
</g>
<g>
</g>
<g>
</g>
<g>
</g>
<g>
</g>
<g>
</g>
<g>
</g>
<g>
</g>
<g>
</g>
<g>
</g>
</svg>
