<?xml version="1.0" encoding="utf-8"?>
<!-- Generator: Adobe Illustrator 22.1.0, SVG Export Plug-In . SVG Version: 6.00 Build 0)  -->
<svg version="1.1" id="レイヤー_1" xmlns="http://www.w3.org/2000/svg" xmlns:xlink="http://www.w3.org/1999/xlink" x="0px"
	 y="0px" viewBox="0 0 330 82" style="enable-background:new 0 0 330 82;" xml:space="preserve">
<style type="text/css">
	.st0{fill:#FFFFFF;}
	.st1{fill:none;}
</style>
<g>
	<path class="st0" d="M17.8,79.1h-3.3v-15l-4.9,4.5c-0.9,0.8-1.6,1.3-2.2,1.5c-0.5,0.1-1.4,0.2-2.8,0.2h-2V67h2.1
		c0.8,0,1.5-0.1,2-0.4c0.4-0.2,1-0.7,1.8-1.4l10.3-9.5c0.9-0.8,1.6-1.3,2-1.6c0.4-0.2,1.2-0.3,2.2-0.3h4.3v3.2h-3.5
		c-0.8,0-1.4,0.1-1.8,0.3c-0.3,0.1-0.7,0.4-1.3,1l-2.9,2.6V79.1z"/>
	<path class="st0" d="M54.6,53.7l-9.3,22.7c-0.8,1.8-2,2.8-3.8,2.8h-6.4v-3h4c1.7,0,2.9-0.9,3.7-2.6l8-19.8H54.6z"/>
	<path class="st0" d="M88.5,77.1h-0.6c-1.6,0-2.9-0.6-3.9-1.8L72.1,61.5c-0.4-0.5-0.8-0.7-1.1-0.7c-0.4,0-0.8,0.3-1.3,0.8l-6,6.5
		l-2.1-2.5l6.1-6.6c0.7-0.7,1.3-1.2,1.7-1.5c0.4-0.3,0.9-0.4,1.5-0.4c0.7,0,1.3,0.2,1.8,0.5c0.4,0.2,0.8,0.7,1.3,1.3l12.3,13.7
		c0.6,0.7,1.3,1.1,2.2,1.1V77.1z M81,59.2l-1.7,1.4l-2.5-3.3l1.7-1.2L81,59.2z M84.3,57.8L82.7,59l-2.6-3l1.6-1.2L84.3,57.8z"/>
	<path class="st0" d="M116.7,67.7H93.2v-3.1h23.5V67.7z"/>
	<path class="st0" d="M133.5,67.9h-3.4c-1.1,0-2-0.1-2.5-0.3c-0.8-0.3-1.4-0.9-2-1.8l-3-4.9h4l1.8,2.7c0.3,0.5,0.7,0.9,1.1,1.1
		c0.3,0.1,0.7,0.1,1.3,0.1h2.7V67.9z M147.7,62.3c-1.6,0-2.6,0.6-2.8,1.8l-2.2,9.4c-0.4,2-1.1,3.3-2,4.2c-1.1,0.9-2.6,1.4-4.7,1.4
		h-13.2v-3H134c1.4,0,2.5-0.2,3.3-0.5c1.1-0.5,1.8-1.4,2.1-2.8l2.6-10.3c0.5-2.2,1.7-3.3,3.5-3.3h2.3V62.3z M135,60.3h-2.6
		c-1.1,0-2-0.1-2.5-0.4c-0.7-0.3-1.4-0.9-1.9-1.8l-2.8-4.7h4l1.5,2.5c0.3,0.5,0.7,0.9,1.1,1.1c0.3,0.1,0.8,0.1,1.4,0.1h1.8V60.3z"/>
	<path class="st0" d="M171.4,69.8h-16.1V67h16.1v-5.8h-16v-2.8h19.2v18c0,0.8-0.2,1.5-0.7,2c-0.4,0.5-1.1,0.7-1.9,0.7h-16.5v-2.8
		H170c0.9,0,1.4-0.5,1.4-1.4V69.8z"/>
	<path class="st0" d="M194.3,62.4h-2.8c-1.1,0-2-0.1-2.5-0.4c-0.7-0.3-1.3-0.9-1.9-1.8l-4.5-6.6h4.2l3,4.4c0.5,0.8,1.4,1.2,2.6,1.2
		h2V62.4z M207.9,60.4c-0.8,0-1.4,0.1-1.8,0.3c-0.5,0.3-0.9,0.8-1,1.5l-2.5,11.3c-0.4,2-1.1,3.3-2.1,4.2c-1,0.9-2.6,1.4-4.7,1.4
		h-13.2v-3h11.3c1.4,0,2.5-0.2,3.2-0.5c1.1-0.5,1.7-1.4,2.1-2.8l2.9-12.2c0.5-2.2,1.7-3.3,3.5-3.3h2.3V60.4z"/>
	<path class="st0" d="M237.3,63.9l-5.1,12.8c-0.4,0.9-1,1.6-1.7,1.9c-0.6,0.3-1.6,0.5-2.8,0.5h-12.6v-3h10.9c1.8,0,2.9-0.5,3.3-1.6
		l4.2-10.7h-21v-3h24.7V63.9z M236,56.8h-21.7v-3.1H236V56.8z"/>
	<path class="st0" d="M249.6,63.3l-2.3,12.2c-0.3,1.5-0.7,2.5-1.2,3s-1.4,0.7-2.8,0.7h-1.5V76c0.7,0,1.2-0.2,1.6-0.4
		c0.4-0.4,0.7-1,0.9-1.9l1.9-10.4H249.6z M256.7,79.1h-3.4V60.6h-11.4v-3h11.4v-4.5h3.4v4.5H268v3h-11.4V79.1z M268.1,79.1h-1.8
		c-1.4,0-2.3-0.2-2.8-0.7c-0.5-0.5-0.9-1.5-1.2-3l-2.2-12.1h3.3l1.9,10.3c0.2,1,0.5,1.7,0.9,2c0.4,0.3,1,0.4,1.9,0.4V79.1z
		 M264.9,55.7l-1.9,1l-1.8-3.7l1.9-0.8L264.9,55.7z M268.5,55.1l-1.9,0.9l-1.9-3.5l1.8-0.9L268.5,55.1z"/>
	<path class="st0" d="M297.1,78.9h-21.1c-0.9,0-1.7-0.3-2.2-0.8c-0.6-0.5-0.8-1.3-0.8-2.2v-12c0-0.9,0.3-1.7,0.8-2.2
		c0.5-0.5,1.3-0.8,2.2-0.8h7.4v-7.5h3.6v7.5h9.7v3h-18.4c-1.3,0-1.9,0.6-1.9,1.9v8.3c0,1.3,0.6,1.9,1.9,1.9h18.9V78.9z"/>
	<path class="st0" d="M307.4,79h-2.5c-0.9,0-1.6-0.2-2.1-0.5c-0.4-0.4-0.6-1-0.6-1.8V53.2h3.3v20.9c0,1.3,0.6,1.9,1.9,1.9V79z
		 M327.8,71.3h-4v4.4c0,1-0.3,1.7-0.8,2.4c-0.5,0.6-1.1,0.9-1.9,0.9h-8.6c-0.6,0-1-0.2-1.4-0.6c-0.4-0.4-0.6-0.9-0.6-1.4v-6.6
		c0-0.5,0.2-1,0.6-1.4c0.4-0.4,0.9-0.6,1.4-0.6h7.9v-8.2h-11.7v-3h11.7v-3.8h3.4v3.8h4v3h-4v8.2h4V71.3z M320.3,71.3h-5.8
		c-0.3,0-0.6,0.1-0.9,0.3c-0.2,0.2-0.4,0.5-0.4,0.8V75c0,0.3,0.1,0.6,0.4,0.8c0.3,0.2,0.6,0.3,0.9,0.3h4.5c0.3,0,0.6-0.1,0.8-0.3
		c0.3-0.3,0.4-0.5,0.4-0.8V71.3z"/>
</g>
<g>
	<path class="st0" d="M95.5,30.3l-8.4-10.5h-5.2v10.5h-5.1V5.8h5.1v10.5h5.3l8.3-10.5h5.9l-9.7,12l10.3,12.5H95.5z"/>
	<path class="st0" d="M138.4,30.3h-5.2V19.2H119v11.1h-5.2V9.6c0-2.6,1.5-3.8,4.6-3.8h15.4c3.1,0,4.6,1.3,4.6,3.8V30.3z M133.2,10
		H119v6.6h14.3V10z"/>
	<path class="st0" d="M159.3,5.8h5.4v24.5h-5.4V5.8z"/>
	<path class="st0" d="M203.5,30.3l-8.4-10.5h-5.2v10.5h-5.1V5.8h5.1v10.5h5.3l8.3-10.5h5.9l-9.7,12l10.3,12.5H203.5z"/>
	<path class="st0" d="M246.4,30.3h-5.2V19.2H227v11.1h-5.2V9.6c0-2.6,1.5-3.8,4.6-3.8h15.4c3.1,0,4.6,1.3,4.6,3.8V30.3z M241.2,10
		H227v6.6h14.3V10z"/>
</g>
<rect id="_x3C_スライス_x3E_" x="2" y="5" class="st1" width="326" height="75"/>
<g>
</g>
<g>
</g>
<g>
</g>
<g>
</g>
<g>
</g>
<g>
</g>
<g>
</g>
<g>
</g>
<g>
</g>
<g>
</g>
<g>
</g>
<g>
</g>
<g>
</g>
<g>
</g>
<g>
</g>
</svg>
