<?xml version="1.0" encoding="utf-8"?>
<!-- Generator: Adobe Illustrator 19.2.0, SVG Export Plug-In . SVG Version: 6.00 Build 0)  -->
<svg version="1.1" xmlns="http://www.w3.org/2000/svg" xmlns:xlink="http://www.w3.org/1999/xlink" x="0px" y="0px"
	 viewBox="0 0 192 66" style="enable-background:new 0 0 192 66;" xml:space="preserve">
<style type="text/css">
	.st0{display:none;}
	.st1{display:inline;}
	.st2{fill:#D67743;}
	.st3{fill:#580E10;}
	.st4{fill:#FFFFFF;}
	.st5{fill:#D81F18;}
	.st6{fill:#D9610F;}
	.st7{display:inline;fill:#332211;}
	.st8{fill:#332211;}
	.st9{display:inline;fill:#E8BB00;}
	.st10{fill:#E8BB00;}
	.st11{display:inline;fill:#333333;}
	.st12{fill:#413327;}
	.st13{font-family:'KozGoPro-Medium-83pv-RKSJ-H';}
	.st14{font-size:10.772px;}
	.st15{letter-spacing:1;}
	.st16{fill:#007AB7;}
	.st17{font-family:'GillSans-BoldItalic';}
	.st18{font-size:8.4226px;}
	.st19{display:inline;fill:#252525;}
</style>
<g id="レイヤー_1">
</g>
<g id="レイヤー_2">
</g>
<g id="レイヤー_3">
</g>
<g id="レイヤー_5">
</g>
<g id="レイヤー_4">
</g>
<g id="レイヤー_8" class="st0">
	<text transform="matrix(1 0 0 1 2.8262 59.4102)" class="st1"><tspan x="0" y="0" class="st4 st13 st14 st15">未開拓領域を花開かせ</tspan><tspan x="127.1" y="0" class="st4 st13 st14">る</tspan></text>
	<g class="st1">
		<g>
			<path class="st16" d="M186.5,50.8l-6.6,9.1l3.2-9.1l-3.8-0.1l-3.4,5.5l0.3-5.5h-3.3l-3.7,9.8l2.7,0l1.9-5.8l-0.3,5.8l2.1,0
				l3.5-5.7l-2.1,5.7l5.5,0l1.3-1.7l3.1,0.1l0,1.7h2.3v-9.8L186.5,50.8z M186.7,57l-1.9-0.1l1.9-2.8L186.7,57z"/>
			<path class="st16" d="M168.6,50.8c0,0-2.8,8.1-3.4,8.8c-0.7,0.9-1.6,1-2.3,1.2c-1.8,0.5-3.7,0.5-3.7,0.5l-1.2,3.1
				c0,0,1.2,0,1.7-0.1c1.1-0.2,1.6-0.2,3-0.8c1.5-0.7,2.7-2.7,2.7-2.7s0.9-0.4,1.6-0.9c0.5-0.4,1.3-1,1.8-2.1c1.1-2.3,2.7-7,2.7-7
				H168.6z M161.5,63.4c-1.2,0.4-2.6,0.5-2.6,0.5l0.8-1.9c0,0,1.9-0.2,2.6-0.3c0.7-0.2,2.2-0.6,2.2-0.6S163.4,62.7,161.5,63.4z"/>
		</g>
		<text transform="matrix(1 0 0 1 154.3496 56.9507)" class="st16 st17 st18">by</text>
	</g>
	<g class="st1">
		<path class="st2" d="M75.3,3.2v5.2C71.9,4.9,67,2.7,61.7,2.7C51,2.7,42.4,11.3,42.4,22c0,10.7,8.6,19.3,19.3,19.3
			c5.3,0,10.2-2.2,13.7-5.7v5h6.2V3.2H75.3z M71.2,31.5c-2.4,2.4-5.8,3.9-9.5,3.9c-3.7,0-7.1-1.5-9.5-3.9c-2.4-2.4-3.9-5.8-3.9-9.5
			c0-3.7,1.5-7.1,3.9-9.5c2.4-2.4,5.8-3.9,9.5-3.9c3.7,0,7.1,1.5,9.5,3.9c2.4,2.4,3.9,5.8,3.9,9.5C75.1,25.7,73.6,29.1,71.2,31.5
			L71.2,31.5z"/>
		<g>
			<path class="st2" d="M95.5,40.6H95V3.3h6.2v37.3H95.5L95.5,40.6z"/>
		</g>
		<g>
			<path class="st2" d="M4.7,40.6h5.7V3.3H4.3v37.3H4.7L4.7,40.6z"/>
			<path class="st2" d="M11.9,22.2l23.7,20.7l4-4.6L20.9,21.9l18.7-16l-3.8-4.5h-0.2h-0.2L11.5,21.8L11.9,22.2l0.3-0.4l0.3,0.4
				l-0.3-0.4L11.9,22.2L11.9,22.2z"/>
		</g>
		<g>
			<path class="st2" d="M113.2,40.5h5.7V3.2h-6.2v37.3H113.2L113.2,40.5z"/>
			<path class="st2" d="M120.3,22.1l23.7,20.7l4-4.6l-18.8-16.4l18.7-16l-3.8-4.5H144h-0.2l-23.9,20.4L120.3,22.1l0.3-0.4l0.3,0.4
				l-0.3-0.4L120.3,22.1L120.3,22.1z"/>
		</g>
		<path class="st2" d="M183.8,3.2v5.2c-3.5-3.5-8.3-5.7-13.7-5.7c-10.7,0-19.3,8.6-19.3,19.3c0,10.7,8.6,19.3,19.3,19.3
			c5.3,0,10.2-2.2,13.7-5.7v5h6.2V3.2H183.8z M179.6,31.5c-2.4,2.4-5.8,3.9-9.5,3.9c-3.7,0-7.1-1.5-9.5-3.9
			c-2.4-2.4-3.9-5.8-3.9-9.5c0-3.7,1.5-7.1,3.9-9.5c2.4-2.4,5.8-3.9,9.5-3.9c3.7,0,7.1,1.5,9.5,3.9c2.4,2.4,3.9,5.8,3.9,9.5
			C183.5,25.7,182,29,179.6,31.5L179.6,31.5z"/>
	</g>
</g>
<g id="レイヤー_8のコピー">
	<g>
		<path class="st4" d="M13.1,55.7H9.3c1,1.3,2.5,2.5,4,3.2c-0.2,0.2-0.6,0.6-0.8,0.9c-1.4-0.7-2.8-1.9-3.8-3.3v3.9H7.7v-3.8
			c-1,1.3-2.4,2.5-3.8,3.2c-0.2-0.3-0.5-0.7-0.8-0.9c1.5-0.7,3-1.9,4-3.2H3.4v-1h4.3V53H4.2v-1h3.5v-1.7L9,50.4
			c0,0.1-0.1,0.2-0.3,0.2V52h3.5v1H8.7v1.7h4.3V55.7z"/>
		<path class="st4" d="M20.5,54.5h-3.1v5.9h-1v-9.7h4.1V54.5z M19.5,51.5h-2.1v0.7h2.1V51.5z M17.4,53.7h2.1v-0.8h-2.1V53.7z
			 M23.8,57.8h-1.4v2.4h-0.9v-2.4h-1.3c-0.1,0.7-0.5,1.8-1.4,2.4c-0.1-0.2-0.5-0.5-0.7-0.6c0.8-0.5,1.1-1.3,1.2-1.8h-1.2V57h1.3v-1
			h-1.1v-0.8h5.3v0.8h-1.1v1h1.4V57.8z M20.2,57h1.3v-1h-1.3V57z M25.5,50.7v8.4c0,1-0.4,1.2-2.2,1.2c0-0.3-0.2-0.7-0.3-1
			c0.3,0,0.6,0,0.8,0c0.6,0,0.7,0,0.7-0.2v-4.6h-3.2v-3.8H25.5z M24.5,51.5h-2.2v0.7h2.2V51.5z M22.3,53.7h2.2v-0.8h-2.2V53.7z"/>
		<path class="st4" d="M32.3,54.9l0.1,0.9c-0.4,0.2-0.9,0.3-1.3,0.5v3c0,0.9-0.3,1.2-2,1.1c0-0.3-0.2-0.7-0.3-0.9c0.3,0,0.5,0,0.8,0
			c0.5,0,0.5,0,0.5-0.2v-2.6L29,57c0,0.1-0.1,0.2-0.2,0.2L28.5,56c0.4-0.1,1-0.3,1.6-0.5v-2.2h-1.5v-0.9h1.5v-2.1l1.2,0.1
			c0,0.1-0.1,0.2-0.2,0.2v1.9h1.2v0.9h-1.2v1.9L32.3,54.9z M38.7,51.9h-3.4c-0.2,1-0.5,2-0.9,2.9h3.8v5.5h-1v-0.5h-2.8v0.5h-1v-3.5
			c-0.3,0.5-0.7,1-1.1,1.4c-0.2-0.2-0.5-0.6-0.7-0.8c1.2-1.2,2.2-3.2,2.7-5.5h-2v-1h6.4V51.9z M37.2,58.9v-3.2h-2.8v3.2H37.2z"/>
		<path class="st4" d="M42.4,54v-0.6c-0.2,0.2-0.5,0.5-0.7,0.7c-0.1-0.2-0.4-0.6-0.5-0.8c1-0.9,1.7-2,2.1-3l1.2,0.2
			c0,0.1-0.1,0.2-0.2,0.2l0,0c0.7,0.6,1.6,1.4,2,2l-0.6,0.8c-0.4-0.5-1.1-1.4-1.8-2c-0.3,0.5-0.6,1.1-1.1,1.6h2.5V54H42.4z
			 M45.5,54.9V58c0,0.9-0.3,1-1.6,1c0-0.3-0.1-0.6-0.2-0.9c0.9,0,0.9,0,0.9-0.1v-2.2h-1.1v4.6h-0.9v-4.6h-1v-0.9H45.5z M48.2,58.9
			c0,0-0.1,0.1-0.2,0.1c-0.5,0.5-1.5,1.1-2.3,1.4c-0.2-0.2-0.5-0.5-0.7-0.7c0.9-0.3,1.8-0.9,2.3-1.4L48.2,58.9z M46.2,52.5h1.6
			c0.1-0.3,0.1-0.6,0.2-0.9h-2.2v-0.9h5.6v0.9H49c-0.1,0.3-0.2,0.6-0.3,0.9H51v5.7h-4.8V52.5z M50,54.2v-0.9h-2.9v0.9H50z M50,55.8
			v-0.9h-2.9v0.9H50z M50,57.5v-0.9h-2.9v0.9H50z M50.7,60.4c-0.4-0.4-1.2-1-1.9-1.5l0.8-0.5c0.6,0.4,1.5,1,1.9,1.4L50.7,60.4z"/>
		<path class="st4" d="M57.2,56.7l0.2,0.9c-1,0.4-2.1,0.9-2.9,1.2c0,0.1-0.1,0.2-0.2,0.2l-0.5-1.1c0.4-0.1,0.8-0.3,1.3-0.4v-3.5
			h-1.1v-1h1.1v-2.6l1.2,0.1c0,0.1-0.1,0.1-0.2,0.2v2.4h1v1h-1v3.2L57.2,56.7z M56.8,58.6c0.9-0.2,2.3-0.7,3.6-1.1l0.2,0.9
			c-1.1,0.4-2.3,0.9-3.1,1.1c0,0.1-0.1,0.2-0.1,0.2L56.8,58.6z M61.9,52.7c0,1.2,0.1,2.4,0.3,3.5c0.3-0.8,0.6-1.6,0.8-2.5l1.1,0.3
			c0,0.1-0.1,0.1-0.3,0.1c-0.3,1.3-0.8,2.6-1.4,3.6c0.2,1,0.5,1.7,0.8,1.7c0.2,0,0.3-0.5,0.4-1.5c0.2,0.2,0.5,0.5,0.7,0.6
			c-0.2,1.4-0.4,1.9-1.1,1.9c-0.3,0-0.9-0.1-1.4-1.6c-0.5,0.6-1,1.2-1.7,1.6c-0.2-0.2-0.5-0.5-0.7-0.6c0.8-0.5,1.5-1.3,2.1-2.1
			c-0.3-1.3-0.4-3-0.5-4.8h-3.7v-0.9h3.6c0-0.5,0-1,0-1.5l1.2,0.1c0,0.1-0.1,0.2-0.3,0.2v1.3h1.6c-0.3-0.3-0.8-0.7-1.3-1l0.6-0.5
			c0.5,0.3,1,0.7,1.3,1l-0.6,0.6h0.6v0.9H61.9z M57.5,53.8h2.8V57h-2.8V53.8z M59.5,56.3v-1.7h-1.2v1.7H59.5z"/>
		<path class="st4" d="M76.3,55.2C76.3,55.2,76.3,55.2,76.3,55.2c-0.1,0-0.2,0-0.2,0c-0.8,0.2-1.9,0.6-2.8,1c0,0.2,0,0.5,0,0.8
			c0,0.3,0,0.6,0,1l-1.1,0.1c0-0.5,0.1-1.1,0-1.4c-1,0.5-1.8,1.1-1.8,1.7c0,0.5,0.7,0.8,2,0.8c1,0,2,0,2.7-0.1l0,1
			c-0.6,0.1-1.5,0.1-2.7,0.1c-2.1,0-3-0.5-3-1.7c0-0.9,1.2-1.9,2.7-2.6c-0.1-0.5-0.3-0.8-0.6-0.8c-0.8,0-1.5,0.4-2.5,1.4
			c-0.3,0.3-0.7,0.7-1.2,1.2l-0.7-0.7c0.5-0.5,1.1-1,1.4-1.4c0.5-0.6,1-1.6,1.2-2.3l-0.5,0c-0.4,0-1.2,0-1.7,0v-1c0.6,0,1.4,0,1.9,0
			l0.7,0c0.1-0.5,0.2-0.9,0.3-1.5l1.4,0.2c0,0.1-0.1,0.2-0.3,0.2c-0.1,0.4-0.2,0.7-0.3,1.1c0.8,0,2.2-0.2,3.5-0.6l0.2,1
			c-1.2,0.4-2.7,0.5-3.9,0.5c-0.2,0.7-0.4,1.2-0.6,1.5h0c0.4-0.4,1.1-0.6,1.6-0.6c0.7,0,1.2,0.5,1.3,1.3c0.9-0.4,1.9-0.8,2.8-1.1
			L76.3,55.2z"/>
		<path class="st4" d="M83.2,53.3h-0.8l1,0.3c0,0.1-0.1,0.1-0.3,0.1c-0.2,0.5-0.5,1-0.8,1.5l0.4,0.1c0,0.1-0.1,0.2-0.2,0.2v4.9h-1
			v-4c-0.4,0.5-0.8,0.9-1.3,1.3c-0.2-0.2-0.5-0.5-0.8-0.7c1.1-0.9,2.2-2.3,2.8-3.8l0.1,0v-0.8h-2.5v-1h2.5v-1.1l1.3,0.1
			c0,0.1-0.1,0.2-0.3,0.2v0.9h2.6v-1.1l1.3,0.1c0,0.1-0.1,0.2-0.3,0.2v0.9h2.5v1h-2.5v0.9h-1v-0.9h-2.6V53.3z M85.6,58.7
			c0,0.5,0.1,0.5,0.6,0.5h1.7c0.5,0,0.6-0.3,0.6-1.7c0.2,0.2,0.7,0.3,0.9,0.4c-0.1,1.7-0.4,2.2-1.5,2.2h-1.9c-1.2,0-1.5-0.3-1.5-1.5
			v-5.3l1.3,0.1c0,0.1-0.1,0.2-0.2,0.2v2.3c1-0.5,2-1,2.7-1.6l0.8,0.8c0,0-0.1,0.1-0.2,0c-0.8,0.5-2.1,1.1-3.3,1.6V58.7z"/>
		<path class="st4" d="M96.7,54.5h-3.1v5.9h-1v-9.7h4.1V54.5z M95.8,51.5h-2.1v0.7h2.1V51.5z M93.7,53.7h2.1v-0.8h-2.1V53.7z
			 M100.1,57.8h-1.4v2.4h-0.9v-2.4h-1.3c-0.1,0.7-0.5,1.8-1.4,2.4c-0.1-0.2-0.5-0.5-0.7-0.6c0.8-0.5,1.1-1.3,1.2-1.8h-1.2V57h1.3v-1
			h-1.1v-0.8h5.3v0.8h-1.1v1h1.4V57.8z M96.5,57h1.3v-1h-1.3V57z M101.8,50.7v8.4c0,1-0.4,1.2-2.2,1.2c0-0.3-0.2-0.7-0.3-1
			c0.3,0,0.6,0,0.8,0c0.6,0,0.7,0,0.7-0.2v-4.6h-3.2v-3.8H101.8z M100.8,51.5h-2.2v0.7h2.2V51.5z M98.6,53.7h2.2v-0.8h-2.2V53.7z"/>
		<path class="st4" d="M109.2,50.8c0,0.2-0.2,0.2-0.4,0.2c-0.1,0.6-0.3,1.5-0.4,2.2c0.4,0,0.8-0.1,1-0.1c1.7,0,2.3,1.2,2.3,2.8
			c0,0.4-0.1,1.5-0.3,2.3c-0.3,1.2-1,1.8-2,1.8c-0.4,0-1-0.2-2-0.9c0.2-0.3,0.3-0.6,0.4-0.9c0.8,0.6,1.2,0.7,1.6,0.7
			c0.5,0,0.8-0.4,1-1c0.2-0.6,0.3-1.5,0.3-2c0-1.1-0.4-1.8-1.3-1.8c-0.3,0-0.7,0-1.2,0.1c-0.5,2.1-1.1,4-2.1,5.7l-1-0.5
			c1-1.6,1.5-3.2,2-5.1l-1.8,0.2l-0.1-1.1l2.1-0.2c0.2-0.8,0.3-1.7,0.4-2.7L109.2,50.8z M113.8,56.1c-0.3-1.5-1.3-2.8-2.3-3.6
			l0.8-0.6c1.1,0.8,2.3,2.4,2.6,3.8L113.8,56.1z"/>
		<path class="st4" d="M125.2,54.6c0,1.5,0,3-1.5,3c-0.5,0-1.1-0.2-1.6-0.4c0.1-0.2,0.1-0.6,0.1-0.9c0.5,0.3,1,0.4,1.3,0.4
			c0.2,0,0.5-0.2,0.5-0.5c0.1-0.4,0.1-1,0.1-1.8c-1.1,0.2-2.3,0.4-3.1,0.5c0,3.3,0,4,1.8,4c0.2,0,0.4,0,0.6,0c0.9,0,2.1-0.1,2.9-0.2
			l0,1c-0.8,0.1-1.9,0.1-2.7,0.1c-1.7,0-3.3-0.1-3.5-2.4c0-0.6-0.1-1.4-0.1-2.4c-0.6,0.1-1.5,0.3-2,0.4l-0.2-1
			c0.5-0.1,1.4-0.2,2.2-0.4c0-0.9,0-2,0-2.7l1.4,0.1c0,0.1-0.1,0.2-0.3,0.2c0,0.6,0,1.4,0,2.2l3.1-0.5c0-0.9-0.1-1.9-0.1-2.8
			l1.4,0.1c0,0.1-0.1,0.2-0.2,0.2c0,0.7,0.1,1.5,0.1,2.3c0.8-0.1,1.6-0.2,2.2-0.3l0.1,1c-0.6,0.1-1.4,0.2-2.3,0.3V54.6z"/>
		<path class="st4" d="M134.4,54.9c0.7-0.3,1.6-0.5,2.4-0.5c1.7,0,2.8,1,2.8,2.6c0,1.9-1.7,3-4,3c-1.4,0-2.4-0.6-2.4-1.6
			c0-0.8,0.8-1.5,1.8-1.5c1.2,0,2,0.9,2.2,1.8c0.7-0.3,1.2-0.9,1.2-1.7c0-1-0.8-1.7-2-1.7c-1.5,0-3,0.7-3.7,1.4
			c-0.3,0.3-0.7,0.7-1,1l-0.8-0.8c0.9-0.9,3.7-3.6,5.2-5c-0.6,0.1-2.6,0.2-3.6,0.2c0,0.1-0.1,0.2-0.2,0.2l-0.1-1.2
			c1.4,0,4.3-0.1,5.1-0.2l0.2-0.1l0.7,0.9c-0.1,0.1-0.2,0.1-0.3,0.1C137.1,52.4,135.2,54.1,134.4,54.9L134.4,54.9z M135.4,59.1
			c0.2,0,0.6,0,0.8-0.1c-0.1-0.7-0.6-1.2-1.3-1.2c-0.5,0-0.9,0.2-0.9,0.6C134.1,59,134.8,59.1,135.4,59.1z"/>
	</g>
	<g>
		<g>
			<path class="st16" d="M186.5,50.8l-6.6,9.1l3.2-9.1l-3.8-0.1l-3.4,5.5l0.3-5.5h-3.3l-3.7,9.8l2.7,0l1.9-5.8l-0.3,5.8l2.1,0
				l3.5-5.7l-2.1,5.7l5.5,0l1.3-1.7l3.1,0.1l0,1.7h2.3v-9.8L186.5,50.8z M186.7,57l-1.9-0.1l1.9-2.8L186.7,57z"/>
			<path class="st16" d="M168.6,50.8c0,0-2.8,8.1-3.4,8.8c-0.7,0.9-1.6,1-2.3,1.2c-1.8,0.5-3.7,0.5-3.7,0.5l-1.2,3.1
				c0,0,1.2,0,1.7-0.1c1.1-0.2,1.6-0.2,3-0.8c1.5-0.7,2.7-2.7,2.7-2.7s0.9-0.4,1.6-0.9c0.5-0.4,1.3-1,1.8-2.1c1.1-2.3,2.7-7,2.7-7
				H168.6z M161.5,63.4c-1.2,0.4-2.6,0.5-2.6,0.5l0.8-1.9c0,0,1.9-0.2,2.6-0.3c0.7-0.2,2.2-0.6,2.2-0.6S163.4,62.7,161.5,63.4z"/>
		</g>
		<text transform="matrix(1 0 0 1 154.3496 56.9507)" class="st16 st17 st18">by</text>
	</g>
	<g>
		<path class="st2" d="M75.3,3.2v5.2C71.9,4.9,67,2.7,61.7,2.7C51,2.7,42.4,11.3,42.4,22c0,10.7,8.6,19.3,19.3,19.3
			c5.3,0,10.2-2.2,13.7-5.7v5h6.2V3.2H75.3z M71.2,31.5c-2.4,2.4-5.8,3.9-9.5,3.9c-3.7,0-7.1-1.5-9.5-3.9c-2.4-2.4-3.9-5.8-3.9-9.5
			c0-3.7,1.5-7.1,3.9-9.5c2.4-2.4,5.8-3.9,9.5-3.9c3.7,0,7.1,1.5,9.5,3.9c2.4,2.4,3.9,5.8,3.9,9.5C75.1,25.7,73.6,29.1,71.2,31.5
			L71.2,31.5z"/>
		<g>
			<path class="st2" d="M95.5,40.6H95V3.3h6.2v37.3H95.5L95.5,40.6z"/>
		</g>
		<g>
			<path class="st2" d="M4.7,40.6h5.7V3.3H4.3v37.3H4.7L4.7,40.6z"/>
			<path class="st2" d="M11.9,22.2l23.7,20.7l4-4.6L20.9,21.9l18.7-16l-3.8-4.5h-0.2h-0.2L11.5,21.8L11.9,22.2l0.3-0.4l0.3,0.4
				l-0.3-0.4L11.9,22.2L11.9,22.2z"/>
		</g>
		<g>
			<path class="st2" d="M113.2,40.5h5.7V3.2h-6.2v37.3H113.2L113.2,40.5z"/>
			<path class="st2" d="M120.3,22.1l23.7,20.7l4-4.6l-18.8-16.4l18.7-16l-3.8-4.5H144h-0.2l-23.9,20.4L120.3,22.1l0.3-0.4l0.3,0.4
				l-0.3-0.4L120.3,22.1L120.3,22.1z"/>
		</g>
		<path class="st2" d="M183.8,3.2v5.2c-3.5-3.5-8.3-5.7-13.7-5.7c-10.7,0-19.3,8.6-19.3,19.3c0,10.7,8.6,19.3,19.3,19.3
			c5.3,0,10.2-2.2,13.7-5.7v5h6.2V3.2H183.8z M179.6,31.5c-2.4,2.4-5.8,3.9-9.5,3.9c-3.7,0-7.1-1.5-9.5-3.9
			c-2.4-2.4-3.9-5.8-3.9-9.5c0-3.7,1.5-7.1,3.9-9.5c2.4-2.4,5.8-3.9,9.5-3.9c3.7,0,7.1,1.5,9.5,3.9c2.4,2.4,3.9,5.8,3.9,9.5
			C183.5,25.7,182,29,179.6,31.5L179.6,31.5z"/>
	</g>
</g>
<g id="レイヤー_7" class="st0">
</g>
<g id="レイヤー_7のコピー">
</g>
<g id="レイヤー_6">
</g>
</svg>
