<?xml version="1.0" encoding="utf-8"?>
<!-- Generator: Adobe Illustrator 22.1.0, SVG Export Plug-In . SVG Version: 6.00 Build 0)  -->
<svg version="1.1" id="レイヤー_1" xmlns="http://www.w3.org/2000/svg" xmlns:xlink="http://www.w3.org/1999/xlink" x="0px"
	 y="0px" viewBox="0 0 205 35.2" style="enable-background:new 0 0 205 35.2;" xml:space="preserve">
<style type="text/css">
	.st0{fill:#FFFFFF;}
	.st1{fill:#E50012;}
</style>
<g>
	<g>
		<path class="st0" d="M22.5,6.9l-2.1,5.9l-4.1,10.4C16,24,15.6,24.9,15,26c-2.9,1.3-6.8,2.2-12.3,2.2l-2.7,7
			c9.8,0,14.1-4.6,16.1-8.1c5.1-2.4,6.7-5.8,7.2-6.9l4.8-13.3H22.5z M2,33.7l1.6-4.1c4.2-0.1,7.5-0.7,10.1-1.6
			C11.7,30.8,8.2,33.4,2,33.7z"/>
		<polygon class="st0" points="45.3,6.9 37.2,19.2 37.9,6.9 31.2,6.9 23.9,27.1 28.6,27.1 32.3,16.9 31.7,27.1 36.7,27.1 43.5,16.8 
			39.8,27.1 45.2,27.1 52.1,6.9 		"/>
		<path class="st0" d="M59.8,6.9L45.6,27.1h4.8l2.8-3.9H60v3.9h5V6.9H59.8z M56,19.2l4-5.7v5.7H56z"/>
	</g>
	<g>
		<rect x="92.4" y="7.9" transform="matrix(0.7071 -0.7071 0.7071 0.7071 15.1008 71.1982)" class="st0" width="2.2" height="19"/>
		
			<rect x="92.4" y="7.9" transform="matrix(-0.7071 -0.7071 0.7071 -0.7071 147.3215 95.7642)" class="st0" width="2.2" height="19"/>
	</g>
	<g>
		<g>
			<path class="st1" d="M142.7,26.5c-1,0-1.8,0.8-1.8,1.8c0,1,0.8,1.8,1.8,1.8c1,0,1.8-0.8,1.8-1.8
				C144.6,27.3,143.7,26.5,142.7,26.5z"/>
			<path class="st1" d="M148.2,26.5c-1,0-1.8,0.8-1.8,1.8c0,1,0.8,1.8,1.8,1.8c1,0,1.8-0.8,1.8-1.8
				C150.1,27.3,149.2,26.5,148.2,26.5z"/>
			<path class="st1" d="M137.3,26.5c-1,0-1.8,0.8-1.8,1.8c0,1,0.8,1.8,1.8,1.8c1,0,1.8-0.8,1.8-1.8
				C139.1,27.3,138.3,26.5,137.3,26.5z"/>
			<path class="st1" d="M131.8,26.5c-1,0-1.8,0.8-1.8,1.8c0,1,0.8,1.8,1.8,1.8c1,0,1.8-0.8,1.8-1.8
				C133.6,27.3,132.8,26.5,131.8,26.5z"/>
			<path class="st1" d="M126.3,26.5c-1,0-1.8,0.8-1.8,1.8c0,1,0.8,1.8,1.8,1.8c1,0,1.8-0.8,1.8-1.8
				C128.1,27.3,127.3,26.5,126.3,26.5z"/>
			<circle class="st1" cx="142.7" cy="33.5" r="1"/>
			<circle class="st1" cx="137.3" cy="33.5" r="1"/>
			<path class="st1" d="M131.8,32.5c-0.6,0-1,0.5-1,1s0.5,1,1,1c0.6,0,1-0.5,1-1S132.3,32.5,131.8,32.5z"/>
			<path class="st1" d="M146,17.3c0-1.4-0.9-2.7-2.2-3.1c0.9-0.4,1.6-1.3,1.6-2.4c0-1.4-1.2-2.6-2.6-2.6c-1.1,0-2,0.6-2.4,1.6
				c-0.4-1.3-1.7-2.2-3.1-2.2c-1.4,0-2.7,0.9-3.1,2.2c-0.4-0.9-1.3-1.6-2.4-1.6c-1.4,0-2.6,1.2-2.6,2.6c0,1.1,0.6,2,1.6,2.4
				c-1.3,0.4-2.2,1.7-2.2,3.1c0,1.4,0.9,2.7,2.2,3.1c-0.9,0.4-1.6,1.3-1.6,2.4c0,1.4,1.2,2.6,2.6,2.6c1.1,0,2-0.6,2.4-1.6
				c0.4,1.3,1.7,2.2,3.1,2.2c1.4,0,2.7-0.9,3.1-2.2c0.4,0.9,1.3,1.6,2.4,1.6c1.4,0,2.6-1.2,2.6-2.6c0-1.1-0.6-2-1.6-2.4
				C145.1,19.9,146,18.7,146,17.3z M141.7,14.2c-0.4,0.1-0.8,0.4-1.2,0.7c-0.2-0.3-0.5-0.6-0.9-0.9c0.3-0.3,0.5-0.7,0.7-1.2
				C140.6,13.4,141.1,13.9,141.7,14.2z M134.2,12.8c0.1,0.4,0.4,0.8,0.7,1.2c-0.3,0.2-0.6,0.5-0.9,0.9c-0.3-0.3-0.7-0.5-1.2-0.7
				C133.4,13.9,133.9,13.4,134.2,12.8z M132.8,20.4c0.4-0.1,0.8-0.4,1.2-0.7c0.2,0.3,0.5,0.6,0.9,0.9c-0.3,0.3-0.5,0.7-0.7,1.2
				C133.9,21.1,133.4,20.6,132.8,20.4z M140.4,21.7c-0.1-0.4-0.4-0.8-0.7-1.2c0.3-0.2,0.6-0.5,0.9-0.9c0.3,0.3,0.7,0.5,1.2,0.7
				C141.1,20.6,140.6,21.1,140.4,21.7z"/>
			<path class="st1" d="M148.2,21c-1,0-1.8,0.8-1.8,1.8c0,1,0.8,1.8,1.8,1.8c1,0,1.8-0.8,1.8-1.8C150.1,21.8,149.2,21,148.2,21z"/>
			<path class="st1" d="M148.2,15.5c-1,0-1.8,0.8-1.8,1.8c0,1,0.8,1.8,1.8,1.8c1,0,1.8-0.8,1.8-1.8
				C150.1,16.3,149.2,15.5,148.2,15.5z"/>
			<path class="st1" d="M148.2,10c-1,0-1.8,0.8-1.8,1.8c0,1,0.8,1.8,1.8,1.8c1,0,1.8-0.8,1.8-1.8C150.1,10.8,149.2,10,148.2,10z"/>
			<circle class="st1" cx="153.5" cy="22.8" r="1"/>
			<circle class="st1" cx="153.5" cy="17.3" r="1"/>
			<path class="st1" d="M153.5,12.8c0.6,0,1-0.5,1-1c0-0.6-0.5-1-1-1c-0.6,0-1,0.5-1,1C152.5,12.4,152.9,12.8,153.5,12.8z"/>
			<path class="st1" d="M142.7,8.1c1,0,1.8-0.8,1.8-1.8c0-1-0.8-1.8-1.8-1.8c-1,0-1.8,0.8-1.8,1.8C140.9,7.3,141.8,8.1,142.7,8.1z"
				/>
			<path class="st1" d="M137.3,8.1c1,0,1.8-0.8,1.8-1.8c0-1-0.8-1.8-1.8-1.8c-1,0-1.8,0.8-1.8,1.8C135.4,7.3,136.3,8.1,137.3,8.1z"
				/>
			<path class="st1" d="M148.2,4.5c-1,0-1.8,0.8-1.8,1.8c0,1,0.8,1.8,1.8,1.8c1,0,1.8-0.8,1.8-1.8C150.1,5.3,149.2,4.5,148.2,4.5z"
				/>
			<path class="st1" d="M131.8,8.1c1,0,1.8-0.8,1.8-1.8c0-1-0.8-1.8-1.8-1.8c-1,0-1.8,0.8-1.8,1.8C130,7.3,130.8,8.1,131.8,8.1z"/>
			<path class="st1" d="M126.3,8.1c1,0,1.8-0.8,1.8-1.8c0-1-0.8-1.8-1.8-1.8c-1,0-1.8,0.8-1.8,1.8C124.5,7.3,125.3,8.1,126.3,8.1z"
				/>
			<path class="st1" d="M142.7,2.1c0.6,0,1-0.5,1-1s-0.5-1-1-1c-0.6,0-1,0.5-1,1S142.2,2.1,142.7,2.1z"/>
			<path class="st1" d="M137.3,2.1c0.6,0,1-0.5,1-1s-0.5-1-1-1c-0.6,0-1,0.5-1,1S136.7,2.1,137.3,2.1z"/>
			<path class="st1" d="M131.8,2.1c0.6,0,1-0.5,1-1s-0.5-1-1-1c-0.6,0-1,0.5-1,1S131.2,2.1,131.8,2.1z"/>
			<path class="st1" d="M126.3,21c-1,0-1.8,0.8-1.8,1.8c0,1,0.8,1.8,1.8,1.8c1,0,1.8-0.8,1.8-1.8C128.1,21.8,127.3,21,126.3,21z"/>
			<path class="st1" d="M126.3,15.5c-1,0-1.8,0.8-1.8,1.8c0,1,0.8,1.8,1.8,1.8c1,0,1.8-0.8,1.8-1.8
				C128.1,16.3,127.3,15.5,126.3,15.5z"/>
			<path class="st1" d="M126.3,10c-1,0-1.8,0.8-1.8,1.8c0,1,0.8,1.8,1.8,1.8c1,0,1.8-0.8,1.8-1.8C128.1,10.8,127.3,10,126.3,10z"/>
			<path class="st1" d="M121,21.7c-0.6,0-1,0.5-1,1c0,0.6,0.5,1,1,1c0.6,0,1-0.5,1-1C122.1,22.2,121.6,21.7,121,21.7z"/>
			<path class="st1" d="M121,16.2c-0.6,0-1,0.5-1,1c0,0.6,0.5,1,1,1c0.6,0,1-0.5,1-1C122.1,16.7,121.6,16.2,121,16.2z"/>
			<path class="st1" d="M121,10.7c-0.6,0-1,0.5-1,1c0,0.6,0.5,1,1,1c0.6,0,1-0.5,1-1C122.1,11.2,121.6,10.7,121,10.7z"/>
		</g>
		<path class="st0" d="M169,23.8h-7.8v-13h7.7v2.1h-5.1v3.2h4.6v2.1h-4.6v3.5h5.1V23.8z"/>
		<path class="st0" d="M175.3,23.8V12.9h-3.7v-2.1h10.1v2.1H178v10.9H175.3z"/>
		<path class="st0" d="M184.5,23.8v-13h2.6v13H184.5z"/>
		<path class="st0" d="M200.5,23.4c-1.2,0.3-1.9,0.4-3,0.4c-4.5,0-7.1-2.4-7.1-6.6c0-4.1,2.6-6.6,6.9-6.6c1.1,0,1.8,0.1,3.1,0.6
			l-0.2,2.2c-0.9-0.5-1.7-0.7-2.8-0.7c-2.6,0-4.2,1.7-4.2,4.3c0,2.7,1.8,4.6,4.4,4.6c1,0,1.8-0.2,2.8-0.5L200.5,23.4z"/>
		<path class="st1" d="M202.3,22.7c0-0.7,0.6-1.3,1.4-1.3c0.8,0,1.4,0.6,1.4,1.3c0,0.7-0.6,1.3-1.4,1.3S202.3,23.4,202.3,22.7z"/>
		<path class="st0" d="M162.1,26v0.1h-0.7v0.6h0.6v0.1h-0.6v0.6h0.7v0.1h-0.8V26H162.1z"/>
		<path class="st0" d="M162.7,26.5c0,0.1,0,0.1,0,0.1c0,0,0,0.1,0,0.1c0.1-0.2,0.2-0.3,0.4-0.3c0.2,0,0.3,0.1,0.4,0.3
			c0,0.1,0,0.2,0,0.4v0.6h-0.2v-0.6c0-0.2,0-0.3,0-0.3c0-0.1-0.1-0.1-0.2-0.1c-0.1,0-0.2,0.1-0.3,0.2c0,0.1-0.1,0.1-0.1,0.3v0.6
			h-0.2v-0.8v0l0,0v0c0,0,0-0.1,0-0.1c0-0.1,0-0.1,0-0.2H162.7z"/>
		<path class="st0" d="M163.9,26.6v-0.1h0.2v-0.3l0.2-0.1v0.4h0.3v0.1h-0.3v0.6c0,0.2,0,0.2,0,0.3c0,0,0.1,0.1,0.2,0.1
			c0,0,0.1,0,0.1,0l0,0.1c-0.1,0-0.1,0-0.1,0c-0.1,0-0.2,0-0.3-0.1c0-0.1,0-0.1,0-0.2c0,0,0,0,0-0.1v-0.1v-0.6H163.9z"/>
		<path class="st0" d="M165.2,26.5c0,0.1,0,0.1,0,0.1c0,0.1,0,0.1,0,0.2c0.1-0.2,0.2-0.3,0.3-0.3c0,0,0.1,0,0.1,0v0.2
			c0,0-0.1,0-0.1,0c-0.1,0-0.2,0.1-0.3,0.2c0,0.1,0,0.1,0,0.3v0.5H165V27c0,0,0,0,0-0.2c0-0.2,0-0.2,0-0.3H165.2z"/>
		<path class="st0" d="M166,27.1c0,0.3,0.2,0.5,0.4,0.5c0.1,0,0.2,0,0.3-0.1l0,0.2c-0.1,0-0.2,0.1-0.3,0.1c-0.4,0-0.6-0.2-0.6-0.6
			c0-0.4,0.2-0.6,0.5-0.6c0.3,0,0.5,0.2,0.5,0.7H166z M166.7,27c0-0.3-0.1-0.4-0.3-0.4c-0.2,0-0.3,0.2-0.4,0.4H166.7z"/>
		<path class="st0" d="M167.5,26.5c0,0.1,0,0.1,0,0.1c0,0,0,0,0,0.1c0,0,0,0,0,0.1c0.1-0.2,0.2-0.3,0.4-0.3c0.3,0,0.5,0.2,0.5,0.6
			c0,0.4-0.2,0.6-0.5,0.6c-0.2,0-0.3-0.1-0.4-0.2c0,0,0,0.1,0,0.1c0,0.1,0,0.1,0,0.2v0.4h-0.1l0-1.3c0-0.1,0-0.1,0-0.2l0,0l0,0v0v0
			l0,0v0H167.5z M167.5,27.1c0,0.3,0.2,0.5,0.4,0.5c0.2,0,0.4-0.2,0.4-0.5c0-0.3-0.1-0.5-0.3-0.5C167.6,26.6,167.5,26.8,167.5,27.1z
			"/>
		<path class="st0" d="M169,26.5c0,0.1,0,0.1,0,0.1c0,0.1,0,0.1,0,0.2c0.1-0.2,0.2-0.3,0.3-0.3c0,0,0.1,0,0.1,0v0.2c0,0-0.1,0-0.1,0
			c-0.1,0-0.2,0.1-0.3,0.2c0,0.1,0,0.1,0,0.3v0.5h-0.2V27c0,0,0,0,0-0.2c0-0.2,0-0.2,0-0.3H169z"/>
		<path class="st0" d="M169.8,27.1c0,0.3,0.2,0.5,0.4,0.5c0.1,0,0.2,0,0.3-0.1l0,0.2c-0.1,0-0.2,0.1-0.3,0.1c-0.4,0-0.6-0.2-0.6-0.6
			c0-0.4,0.2-0.6,0.5-0.6c0.3,0,0.5,0.2,0.5,0.7H169.8z M170.5,27c0-0.3-0.1-0.4-0.3-0.4c-0.2,0-0.3,0.2-0.4,0.4H170.5z"/>
		<path class="st0" d="M171.2,26.5c0,0.1,0,0.1,0,0.1c0,0,0,0.1,0,0.1c0.1-0.2,0.2-0.3,0.4-0.3c0.2,0,0.3,0.1,0.4,0.3
			c0,0.1,0,0.2,0,0.4v0.6h-0.2v-0.6c0-0.2,0-0.3,0-0.3c0-0.1-0.1-0.1-0.2-0.1c-0.1,0-0.2,0.1-0.3,0.2c0,0.1-0.1,0.1-0.1,0.3v0.6
			h-0.2v-0.8v0l0,0v0c0,0,0-0.1,0-0.1c0-0.1,0-0.1,0-0.2H171.2z"/>
		<path class="st0" d="M172.7,27.1c0,0.3,0.2,0.5,0.4,0.5c0.1,0,0.2,0,0.3-0.1l0,0.2c-0.1,0-0.2,0.1-0.3,0.1c-0.4,0-0.6-0.2-0.6-0.6
			c0-0.4,0.2-0.6,0.5-0.6c0.3,0,0.5,0.2,0.5,0.7H172.7z M173.4,27c0-0.3-0.1-0.4-0.3-0.4c-0.2,0-0.3,0.2-0.4,0.4H173.4z"/>
		<path class="st0" d="M174.9,27.3L174.9,27.3c0,0.1,0,0.1,0,0.2c0,0.2,0,0.2,0,0.2h-0.1c0,0,0-0.1,0-0.1c0-0.1,0-0.1,0-0.1
			c-0.1,0.2-0.2,0.3-0.4,0.3c-0.2,0-0.3-0.1-0.4-0.2c0-0.1,0-0.2,0-0.4l0-0.6h0.2l0,0.6c0,0.2,0,0.3,0,0.4c0,0.1,0.1,0.1,0.2,0.1
			c0.1,0,0.2-0.1,0.3-0.2c0-0.1,0.1-0.2,0.1-0.3l0-0.6h0.2L174.9,27.3z"/>
		<path class="st0" d="M175.4,26.5c0,0.1,0,0.1,0,0.3c0,0.1,0,0.2,0,0.2v0.7h0.2v-0.5c0-0.2,0-0.2,0-0.3c0-0.1,0.2-0.2,0.3-0.2
			c0,0,0,0,0.1,0v-0.2c0,0-0.1,0-0.1,0c-0.2,0-0.3,0.1-0.3,0.3c0-0.1,0-0.1,0-0.2c0,0,0,0,0-0.1H175.4z"/>
		<path class="st0" d="M176.5,27.7h-0.2v-1.2h0.2V27.7z M176.5,26.1h-0.2v-0.2h0.2V26.1z"/>
		<path class="st0" d="M177.1,26.6c0.1-0.1,0.2-0.1,0.4-0.1c0.2,0,0.3,0.1,0.4,0.2c0,0.1,0,0.2,0,0.3v0.2c0,0,0,0.1,0,0.2
			c0,0.3,0,0.3,0,0.3h-0.1c0,0,0-0.1,0-0.1c0,0,0-0.1,0-0.1c-0.1,0.2-0.2,0.2-0.4,0.2c-0.2,0-0.4-0.1-0.4-0.4c0-0.3,0.2-0.4,0.7-0.4
			c0,0,0.1,0,0.1,0c0,0,0,0,0,0c0-0.2-0.1-0.3-0.3-0.3c-0.1,0-0.2,0-0.3,0.1L177.1,26.6z M177.7,27.1
			C177.7,27.1,177.6,27.1,177.7,27.1c-0.4,0-0.6,0.1-0.6,0.3c0,0.1,0.1,0.2,0.3,0.2c0.2,0,0.3-0.1,0.3-0.2
			C177.7,27.3,177.7,27.2,177.7,27.1L177.7,27.1z"/>
		<path class="st0" d="M178.5,27.7h-0.2v-1.8h0.2V27.7z"/>
		<path class="st0" d="M180.6,26.2h-0.5v1.5h-0.2v-1.5h-0.5v-0.1h1.1V26.2z"/>
		<path class="st0" d="M180.9,26.5c0,0.1,0,0.1,0,0.1c0,0.1,0,0.1,0,0.2c0.1-0.2,0.2-0.3,0.3-0.3c0,0,0.1,0,0.1,0v0.2
			c0,0-0.1,0-0.1,0c-0.1,0-0.2,0.1-0.3,0.2c0,0.1,0,0.1,0,0.3v0.5h-0.2V27c0,0,0,0,0-0.2c0-0.2,0-0.2,0-0.3H180.9z"/>
		<path class="st0" d="M181.7,26.6c0.1-0.1,0.2-0.1,0.4-0.1c0.2,0,0.3,0.1,0.4,0.2c0,0.1,0,0.2,0,0.3v0.2c0,0,0,0.1,0,0.2
			c0,0.3,0,0.3,0,0.3h-0.1c0,0,0-0.1,0-0.1c0,0,0-0.1,0-0.1c-0.1,0.2-0.2,0.2-0.4,0.2c-0.2,0-0.4-0.1-0.4-0.4c0-0.3,0.2-0.4,0.7-0.4
			c0,0,0.1,0,0.1,0c0,0,0,0,0,0c0-0.2-0.1-0.3-0.3-0.3c-0.1,0-0.2,0-0.3,0.1L181.7,26.6z M182.4,27.1
			C182.3,27.1,182.3,27.1,182.4,27.1c-0.4,0-0.6,0.1-0.6,0.3c0,0.1,0.1,0.2,0.3,0.2c0.2,0,0.3-0.1,0.3-0.2
			C182.4,27.3,182.4,27.2,182.4,27.1L182.4,27.1z"/>
		<path class="st0" d="M183.2,26.1H183v-0.2h0.2V26.1z M183.2,27.7h-0.2v-1.2h0.2V27.7z"/>
		<path class="st0" d="M183.9,26.5c0,0.1,0,0.1,0,0.1c0,0,0,0.1,0,0.1c0.1-0.2,0.2-0.3,0.4-0.3c0.2,0,0.3,0.1,0.4,0.3
			c0,0.1,0,0.2,0,0.4v0.6h-0.2v-0.6c0-0.2,0-0.3,0-0.3c0-0.1-0.1-0.1-0.2-0.1c-0.1,0-0.2,0.1-0.3,0.2c0,0.1-0.1,0.1-0.1,0.3v0.6
			h-0.2v-0.8v0l0,0v0c0,0,0-0.1,0-0.1c0-0.1,0-0.1,0-0.2H183.9z"/>
		<path class="st0" d="M185.4,26.1h-0.2v-0.2h0.2V26.1z M185.3,27.7h-0.2v-1.2h0.2V27.7z"/>
		<path class="st0" d="M186,26.5c0,0.1,0,0.1,0,0.1c0,0,0,0.1,0,0.1c0.1-0.2,0.2-0.3,0.4-0.3c0.2,0,0.3,0.1,0.4,0.3
			c0,0.1,0,0.2,0,0.4v0.6h-0.2v-0.6c0-0.2,0-0.3,0-0.3c0-0.1-0.1-0.1-0.2-0.1c-0.1,0-0.2,0.1-0.3,0.2c0,0.1-0.1,0.1-0.1,0.3v0.6
			h-0.2v-0.8v0l0,0v0c0,0,0-0.1,0-0.1c0-0.1,0-0.1,0-0.2H186z"/>
		<path class="st0" d="M188.3,27.5v0.2c0,0.4-0.2,0.6-0.6,0.6c-0.1,0-0.2,0-0.4-0.1l0-0.2c0.1,0.1,0.2,0.1,0.4,0.1
			c0.2,0,0.3-0.1,0.4-0.2c0-0.1,0-0.1,0-0.3c0,0,0-0.1,0-0.1c-0.1,0.2-0.2,0.3-0.4,0.3c-0.3,0-0.5-0.3-0.5-0.6
			c0-0.4,0.2-0.6,0.5-0.6c0.2,0,0.3,0.1,0.4,0.3c0-0.1,0-0.1,0-0.2h0.1L188.3,27.5z M187.4,27.1c0,0.3,0.1,0.5,0.4,0.5
			c0.2,0,0.4-0.2,0.4-0.5c0-0.3-0.2-0.5-0.4-0.5C187.6,26.6,187.4,26.8,187.4,27.1z"/>
		<path class="st0" d="M161.9,28.9c0,0-0.1,0-0.1,0c-0.1,0-0.2,0.1-0.2,0.3v0.1h0.3v0.1h-0.3v1.1h-0.2v-1.1h-0.3v-0.1h0.3v-0.1
			c0-0.2,0-0.3,0-0.3c0.1-0.1,0.2-0.1,0.3-0.1c0,0,0.1,0,0.1,0L161.9,28.9z"/>
		<path class="st0" d="M163.4,29.9c0,0.4-0.2,0.6-0.6,0.6c-0.3,0-0.6-0.2-0.6-0.6c0-0.4,0.2-0.6,0.6-0.6
			C163.1,29.3,163.4,29.5,163.4,29.9z M162.4,29.9c0,0.3,0.2,0.5,0.4,0.5c0.2,0,0.4-0.2,0.4-0.5c0-0.3-0.2-0.5-0.4-0.5
			C162.6,29.4,162.4,29.6,162.4,29.9z"/>
		<path class="st0" d="M163.9,29.3c0,0.1,0,0.1,0,0.1c0,0.1,0,0.1,0,0.2c0.1-0.2,0.2-0.3,0.3-0.3c0,0,0.1,0,0.1,0v0.2
			c0,0-0.1,0-0.1,0c-0.1,0-0.2,0.1-0.3,0.2c0,0.1,0,0.1,0,0.3v0.5h-0.2v-0.7c0,0,0,0,0-0.2c0-0.2,0-0.2,0-0.3H163.9z"/>
		<path class="st0" d="M165.5,30.5h-0.2v-1.7h0.2V30.5z"/>
		<path class="st0" d="M166.2,29.3c0,0.1,0,0.1,0,0.1c0,0,0,0.1,0,0.1c0.1-0.2,0.2-0.3,0.4-0.3c0.2,0,0.3,0.1,0.4,0.3
			c0,0.1,0,0.2,0,0.4v0.6h-0.2v-0.6c0-0.2,0-0.3,0-0.3c0-0.1-0.1-0.1-0.2-0.1c-0.1,0-0.2,0.1-0.3,0.2c0,0.1-0.1,0.1-0.1,0.3v0.6
			h-0.2v-0.8v0l0,0v0c0,0,0-0.1,0-0.1c0-0.1,0-0.1,0-0.2H166.2z"/>
		<path class="st0" d="M167.7,29.3c0,0.1,0,0.1,0,0.1c0,0,0,0.1,0,0.1c0.1-0.2,0.2-0.3,0.4-0.3c0.2,0,0.3,0.1,0.4,0.3
			c0,0.1,0,0.2,0,0.4v0.6h-0.2v-0.6c0-0.2,0-0.3,0-0.3c0-0.1-0.1-0.1-0.2-0.1c-0.1,0-0.2,0.1-0.3,0.2c0,0.1-0.1,0.1-0.1,0.3v0.6
			h-0.2v-0.8v0l0,0v0c0,0,0-0.1,0-0.1c0-0.1,0-0.1,0-0.2H167.7z"/>
		<path class="st0" d="M170,29.9c0,0.4-0.2,0.6-0.6,0.6c-0.3,0-0.6-0.2-0.6-0.6c0-0.4,0.2-0.6,0.6-0.6C169.8,29.3,170,29.5,170,29.9
			z M169.1,29.9c0,0.3,0.2,0.5,0.4,0.5c0.2,0,0.4-0.2,0.4-0.5c0-0.3-0.2-0.5-0.4-0.5C169.2,29.4,169.1,29.6,169.1,29.9z"/>
		<path class="st0" d="M170.9,30.5h-0.2l-0.4-1.2h0.2l0.1,0.4C170.8,30.2,170.8,30.3,170.9,30.5c-0.1-0.2,0-0.3,0.1-0.8l0.1-0.4h0.2
			L170.9,30.5z"/>
		<path class="st0" d="M171.7,29.4c0.1-0.1,0.2-0.1,0.4-0.1c0.2,0,0.3,0.1,0.4,0.2c0,0.1,0,0.2,0,0.3V30c0,0,0,0.1,0,0.2
			c0,0.3,0,0.3,0,0.3h-0.1c0,0,0-0.1,0-0.1c0,0,0-0.1,0-0.1c-0.1,0.2-0.2,0.2-0.4,0.2c-0.2,0-0.4-0.1-0.4-0.4c0-0.3,0.2-0.4,0.7-0.4
			c0,0,0.1,0,0.1,0c0,0,0,0,0,0c0-0.2-0.1-0.3-0.3-0.3c-0.1,0-0.2,0-0.3,0.1L171.7,29.4z M172.3,29.9
			C172.3,29.9,172.2,29.9,172.3,29.9c-0.4,0-0.6,0.1-0.6,0.3c0,0.1,0.1,0.2,0.3,0.2c0.2,0,0.3-0.1,0.3-0.2
			C172.3,30.1,172.3,30.1,172.3,29.9L172.3,29.9z"/>
		<path class="st0" d="M172.8,29.4v-0.1h0.2V29l0.2-0.1v0.4h0.3v0.1h-0.3V30c0,0.2,0,0.2,0,0.3c0,0,0.1,0.1,0.2,0.1c0,0,0.1,0,0.1,0
			l0,0.1c-0.1,0-0.1,0-0.1,0c-0.1,0-0.2,0-0.3-0.1c0-0.1,0-0.1,0-0.2c0,0,0,0,0-0.1V30v-0.6H172.8z"/>
		<path class="st0" d="M174.1,29H174v-0.2h0.2V29z M174.1,30.5H174v-1.2h0.2V30.5z"/>
		<path class="st0" d="M175.1,30.5h-0.2l-0.4-1.2h0.2l0.1,0.4C175,30.2,175,30.3,175.1,30.5c-0.1-0.2,0-0.3,0.1-0.8l0.1-0.4h0.2
			L175.1,30.5z"/>
		<path class="st0" d="M175.9,29.9c0,0.3,0.2,0.5,0.4,0.5c0.1,0,0.2,0,0.3-0.1l0,0.2c-0.1,0-0.2,0.1-0.3,0.1c-0.4,0-0.6-0.2-0.6-0.6
			c0-0.4,0.2-0.6,0.5-0.6c0.3,0,0.5,0.2,0.5,0.7H175.9z M176.6,29.8c0-0.3-0.1-0.4-0.3-0.4c-0.2,0-0.3,0.2-0.4,0.4H176.6z"/>
		<path class="st0" d="M178.9,29.1c-0.1-0.1-0.2-0.1-0.4-0.1c-0.4,0-0.7,0.3-0.7,0.7c0,0.4,0.3,0.7,0.7,0.7c0.2,0,0.3,0,0.4-0.1
			l0,0.2c-0.1,0-0.2,0.1-0.4,0.1c-0.5,0-0.9-0.3-0.9-0.8c0-0.5,0.3-0.8,0.9-0.8c0.1,0,0.2,0,0.4,0.1L178.9,29.1z"/>
		<path class="st0" d="M180.4,29.9c0,0.4-0.2,0.6-0.6,0.6c-0.3,0-0.6-0.2-0.6-0.6c0-0.4,0.2-0.6,0.6-0.6
			C180.2,29.3,180.4,29.5,180.4,29.9z M179.4,29.9c0,0.3,0.2,0.5,0.4,0.5c0.2,0,0.4-0.2,0.4-0.5c0-0.3-0.2-0.5-0.4-0.5
			C179.6,29.4,179.4,29.6,179.4,29.9z"/>
		<path class="st0" d="M181,29.4c0,0,0,0.1,0,0.1c0.1-0.2,0.2-0.3,0.4-0.3c0.2,0,0.3,0.1,0.3,0.3c0.1-0.2,0.2-0.3,0.4-0.3
			c0.2,0,0.3,0.1,0.4,0.3c0,0.1,0,0.1,0,0.3v0.6h-0.2v-0.6c0-0.2,0-0.2,0-0.3c0-0.1-0.1-0.2-0.2-0.2c-0.2,0-0.3,0.2-0.3,0.4l0,0.1
			v0.6h-0.2v-0.6c0-0.2,0-0.3,0-0.3c0-0.1-0.1-0.2-0.2-0.2c-0.1,0-0.2,0.1-0.3,0.2c0,0.1,0,0.1,0,0.3v0.6h-0.2v-0.6c0,0,0-0.1,0-0.2
			c0-0.2,0-0.3,0-0.4h0.1V29.4L181,29.4z"/>
		<path class="st0" d="M183.1,29.4c0,0,0,0.1,0,0.1c0.1-0.2,0.2-0.3,0.4-0.3c0.2,0,0.3,0.1,0.3,0.3c0.1-0.2,0.2-0.3,0.4-0.3
			c0.2,0,0.3,0.1,0.4,0.3c0,0.1,0,0.1,0,0.3v0.6h-0.2v-0.6c0-0.2,0-0.2,0-0.3c0-0.1-0.1-0.2-0.2-0.2c-0.2,0-0.3,0.2-0.3,0.4l0,0.1
			v0.6h-0.2v-0.6c0-0.2,0-0.3,0-0.3c0-0.1-0.1-0.2-0.2-0.2c-0.1,0-0.2,0.1-0.3,0.2c0,0.1,0,0.1,0,0.3v0.6H183v-0.6c0,0,0-0.1,0-0.2
			c0-0.2,0-0.3,0-0.4h0.1V29.4L183.1,29.4z"/>
		<path class="st0" d="M186,30.1L186,30.1c0,0.1,0,0.1,0,0.2c0,0.2,0,0.2,0,0.2h-0.1c0,0,0-0.1,0-0.1c0-0.1,0-0.1,0-0.1
			c-0.1,0.2-0.2,0.3-0.4,0.3c-0.2,0-0.3-0.1-0.4-0.2c0-0.1,0-0.2,0-0.4l0-0.6h0.2l0,0.6c0,0.2,0,0.3,0,0.4c0,0.1,0.1,0.1,0.2,0.1
			c0.1,0,0.2-0.1,0.3-0.2c0-0.1,0.1-0.2,0.1-0.3l0-0.6h0.2L186,30.1z"/>
		<path class="st0" d="M186.7,29.3c0,0.1,0,0.1,0,0.1c0,0,0,0.1,0,0.1c0.1-0.2,0.2-0.3,0.4-0.3c0.2,0,0.3,0.1,0.4,0.3
			c0,0.1,0,0.2,0,0.4v0.6h-0.2v-0.6c0-0.2,0-0.3,0-0.3c0-0.1-0.1-0.1-0.2-0.1c-0.1,0-0.2,0.1-0.3,0.2c0,0.1-0.1,0.1-0.1,0.3v0.6
			h-0.2v-0.8v0l0,0v0c0,0,0-0.1,0-0.1c0-0.1,0-0.1,0-0.2H186.7z"/>
		<path class="st0" d="M188.2,30.5H188v-1.2h0.2V30.5z M188.2,29H188v-0.2h0.2V29z"/>
		<path class="st0" d="M188.6,29.4v-0.1h0.2V29L189,29v0.4h0.3v0.1H189V30c0,0.2,0,0.2,0,0.3c0,0,0.1,0.1,0.2,0.1c0,0,0.1,0,0.1,0
			l0,0.1c-0.1,0-0.1,0-0.1,0c-0.1,0-0.2,0-0.3-0.1c0-0.1,0-0.1,0-0.2c0,0,0,0,0-0.1V30v-0.6H188.6z"/>
		<path class="st0" d="M189.9,29h-0.2v-0.2h0.2V29z M189.9,30.5h-0.2v-1.2h0.2V30.5z"/>
		<path class="st0" d="M190.5,29.9c0,0.3,0.2,0.5,0.4,0.5c0.1,0,0.2,0,0.3-0.1l0,0.2c-0.1,0-0.2,0.1-0.3,0.1c-0.4,0-0.6-0.2-0.6-0.6
			c0-0.4,0.2-0.6,0.5-0.6c0.3,0,0.5,0.2,0.5,0.7H190.5z M191.2,29.8c0-0.3-0.1-0.4-0.3-0.4c-0.2,0-0.3,0.2-0.4,0.4H191.2z"/>
		<path class="st0" d="M192.4,29.5c-0.1,0-0.2-0.1-0.3-0.1c-0.2,0-0.3,0.1-0.3,0.2c0,0.1,0,0.1,0.2,0.2l0.1,0.1
			c0.2,0.1,0.3,0.2,0.3,0.4c0,0.2-0.2,0.3-0.5,0.3c-0.1,0-0.2,0-0.3-0.1l0-0.2c0.1,0.1,0.2,0.1,0.3,0.1c0.2,0,0.3-0.1,0.3-0.2
			c0-0.1-0.1-0.2-0.2-0.2l-0.1-0.1c-0.2-0.1-0.3-0.2-0.3-0.3c0-0.2,0.2-0.3,0.4-0.3c0.1,0,0.2,0,0.3,0.1L192.4,29.5z"/>
	</g>
</g>
<g>
</g>
<g>
</g>
<g>
</g>
<g>
</g>
<g>
</g>
<g>
</g>
<g>
</g>
<g>
</g>
<g>
</g>
<g>
</g>
<g>
</g>
<g>
</g>
<g>
</g>
<g>
</g>
<g>
</g>
</svg>
