<?xml version="1.0" encoding="utf-8"?>
<!-- Generator: Adobe Illustrator 22.1.0, SVG Export Plug-In . SVG Version: 6.00 Build 0)  -->
<svg version="1.1" id="レイヤー_1" xmlns="http://www.w3.org/2000/svg" xmlns:xlink="http://www.w3.org/1999/xlink" x="0px"
	 y="0px" viewBox="0 0 782.5 50" style="enable-background:new 0 0 782.5 50;" xml:space="preserve">
<style type="text/css">
	.st0{fill:#FFFFFF;}
</style>
<g>
	<path class="st0" d="M21.2,5.5h-8.9v37.4H7.7V1.1h13.5V5.5z"/>
	<path class="st0" d="M73.9,42.1L62.3,27.4H55v14.6h-7.1V8H55v14.6h7.3L73.8,8H82L68.5,24.7l14.3,17.4H73.9z"/>
	<path class="st0" d="M133.5,42.1h-7.2V26.7h-19.8v15.4h-7.2V13.3c0-3.5,2.1-5.3,6.4-5.3h21.4c4.3,0,6.4,1.8,6.4,5.3V42.1z
		 M126.3,13.9h-19.8v9.2h19.8V13.9z"/>
	<path class="st0" d="M162.5,8h7.5v34.1h-7.5V8z"/>
	<path class="st0" d="M223.9,42.1l-11.6-14.6H205v14.6h-7.1V8h7.1v14.6h7.3L223.8,8h8.2l-13.5,16.7l14.3,17.4H223.9z"/>
	<path class="st0" d="M283.5,42.1h-7.2V26.7h-19.8v15.4h-7.2V13.3c0-3.5,2.1-5.3,6.4-5.3h21.4c4.3,0,6.4,1.8,6.4,5.3V42.1z
		 M276.3,13.9h-19.8v9.2h19.8V13.9z"/>
	<path class="st0" d="M321,46.6h-5.6v-25l-8.2,7.4c-1.5,1.4-2.7,2.2-3.7,2.5c-0.8,0.2-2.3,0.3-4.6,0.3h-3.4v-5.4h3.5
		c1.4,0,2.5-0.2,3.3-0.7c0.6-0.3,1.6-1.1,3-2.3l17.2-15.8c1.5-1.4,2.6-2.2,3.3-2.6c0.7-0.3,2-0.5,3.7-0.5h7.2V10H331
		c-1.3,0-2.3,0.2-3,0.5c-0.5,0.2-1.2,0.7-2.2,1.7l-4.8,4.3V46.6z"/>
	<path class="st0" d="M382.3,4.2L366.8,42c-1.3,3.1-3.4,4.6-6.3,4.6h-10.7v-5h6.7c2.9,0,4.9-1.4,6.2-4.3l13.3-33H382.3z"/>
	<path class="st0" d="M438.7,43.3h-1c-2.6,0-4.8-1-6.4-3l-19.8-23.1c-0.7-0.8-1.3-1.2-1.9-1.2c-0.6,0-1.3,0.5-2.1,1.4l-10,10.9
		l-3.6-4.2l10.2-10.9c1.2-1.2,2.1-2.1,2.8-2.4c0.7-0.5,1.5-0.7,2.4-0.7c1.1,0,2.1,0.3,2.9,0.9c0.6,0.4,1.3,1.1,2.2,2.2l20.5,22.8
		c1,1.1,2.2,1.8,3.6,1.9V43.3z M426.3,13.4l-2.9,2.4l-4.2-5.5l2.8-2L426.3,13.4z M431.8,11l-2.7,2.1l-4.3-5.1l2.6-2L431.8,11z"/>
	<path class="st0" d="M485.8,27.6h-39.2v-5.2h39.2V27.6z"/>
	<path class="st0" d="M513.7,27.8h-5.7c-1.9,0-3.3-0.2-4.2-0.5c-1.3-0.5-2.4-1.5-3.3-3l-5-8.1h6.7l2.9,4.4c0.6,0.9,1.2,1.5,1.9,1.8
		c0.5,0.2,1.2,0.2,2.2,0.2h4.5V27.8z M537.5,18.6c-2.7,0-4.3,1-4.7,3l-3.7,15.7c-0.7,3.3-1.8,5.6-3.4,7c-1.8,1.5-4.4,2.3-7.9,2.3
		h-21.9v-5h18.7c2.3,0,4.2-0.3,5.4-0.8c1.8-0.9,2.9-2.4,3.4-4.6l4.3-17.1c0.9-3.6,2.8-5.4,5.9-5.4h3.8V18.6z M516.3,15.3H512
		c-1.9,0-3.3-0.2-4.2-0.6c-1.2-0.5-2.3-1.5-3.2-2.9L499.9,4h6.7l2.5,4.2c0.5,0.9,1.1,1.5,1.8,1.8c0.5,0.1,1.3,0.2,2.3,0.2h3.1V15.3z
		"/>
	<path class="st0" d="M577,31.1h-26.8v-4.6H577v-9.6h-26.7v-4.6h31.9v29.9c0,1.4-0.4,2.5-1.2,3.3c-0.7,0.8-1.8,1.2-3.2,1.2h-27.5
		v-4.6h24.4c1.6,0,2.3-0.8,2.3-2.4V31.1z"/>
	<path class="st0" d="M615.1,18.8h-4.7c-1.9,0-3.3-0.2-4.2-0.6c-1.1-0.5-2.2-1.4-3.2-2.9l-7.5-10.9h7.1l5,7.3
		c0.8,1.4,2.3,2.1,4.4,2.1h3.3V18.8z M637.7,15.3c-1.3,0-2.3,0.2-3,0.5c-0.9,0.5-1.4,1.3-1.7,2.5l-4.2,18.8c-0.7,3.3-1.9,5.6-3.5,7
		c-1.7,1.6-4.3,2.3-7.8,2.3h-22v-5h18.8c2.3,0,4.1-0.3,5.4-0.9c1.8-0.8,2.9-2.4,3.5-4.6l4.9-20.4c0.8-3.7,2.8-5.6,5.8-5.6h3.9V15.3z
		"/>
	<path class="st0" d="M686.8,21.2l-8.5,21.3c-0.7,1.6-1.6,2.6-2.8,3.2c-1,0.5-2.6,0.8-4.6,0.8h-20.9v-5h18.2c3,0,4.8-0.9,5.6-2.7
		l7-17.8h-35v-5.1h41.2V21.2z M684.6,9.5h-36.2V4.3h36.2V9.5z"/>
	<path class="st0" d="M707.3,20.2l-3.8,20.3c-0.5,2.6-1.1,4.2-2,5c-0.8,0.7-2.4,1.1-4.7,1.1h-2.4v-5.2c1.1,0,2-0.3,2.6-0.7
		c0.7-0.6,1.2-1.7,1.6-3.2l3.2-17.3H707.3z M719,46.6h-5.6V15.8h-18.9v-5h18.9V3.4h5.6v7.4H738v5H719V46.6z M738,46.5h-3
		c-2.3,0-3.8-0.4-4.7-1.1c-0.8-0.8-1.5-2.5-2-5l-3.7-20.2h5.5l3.2,17.1c0.3,1.7,0.8,2.8,1.6,3.3c0.6,0.4,1.7,0.7,3.1,0.7V46.5z
		 M732.8,7.6l-3.2,1.7l-3.1-6.1l3.1-1.4L732.8,7.6z M738.8,6.5l-3.1,1.6l-3.2-5.8l3-1.5L738.8,6.5z"/>
	<path class="st0" d="M774.8,48.9h-13.5v-4.4h8.9V7h4.6V48.9z"/>
</g>
<g>
</g>
<g>
</g>
<g>
</g>
<g>
</g>
<g>
</g>
<g>
</g>
<g>
</g>
<g>
</g>
<g>
</g>
<g>
</g>
<g>
</g>
<g>
</g>
<g>
</g>
<g>
</g>
<g>
</g>
</svg>
